<svg width="98" height="98" viewBox="0 0 98 98" fill="none" xmlns="http://www.w3.org/2000/svg">
<g clip-path="url(#clip0)">
<path d="M91.4669 19.6001C87.8636 19.6001 84.9336 22.5303 84.9336 26.1334C84.9336 29.7364 87.8638 32.6666 91.4669 32.6666C95.0699 32.6666 98.0001 29.7366 98.0001 26.1334C98.0001 22.5303 95.0699 19.6001 91.4669 19.6001ZM91.4669 29.4001C89.6653 29.4001 88.2001 27.9351 88.2001 26.1334C88.2001 24.3319 89.6652 22.8666 91.4669 22.8666C93.2686 22.8666 94.7336 24.3317 94.7336 26.1334C94.7334 27.9351 93.2684 29.4001 91.4669 29.4001Z" fill="#1A262F"/>
<path d="M6.53327 73.5C2.93024 73.5 0 76.4302 0 80.0333C0 83.6363 2.93024 86.5665 6.53327 86.5665C10.1365 86.5665 13.0665 83.6363 13.0665 80.0333C13.0665 76.4302 10.1365 73.5 6.53327 73.5ZM6.53327 83.3C4.73175 83.3 3.26654 81.835 3.26654 80.0333C3.26654 78.2316 4.73156 76.7665 6.53327 76.7665C8.33479 76.7665 9.8 78.2316 9.8 80.0333C9.8 81.835 8.33498 83.3 6.53327 83.3Z" fill="#1A262F"/>
<path d="M88.2991 21.6643L74.2083 14.8616C73.3948 14.4679 72.4198 14.8109 72.0278 15.6228C71.6358 16.4346 71.9771 17.4113 72.789 17.8033L86.8798 24.6061C87.1085 24.7171 87.3503 24.7693 87.5886 24.7693C88.1961 24.7693 88.7793 24.4296 89.0601 23.8449C89.4521 23.0331 89.1108 22.0563 88.2991 21.6643Z" fill="#1A262F"/>
<path d="M73.5001 84.9333C69.8968 84.9333 66.9668 87.8636 66.9668 91.4666C66.9668 95.0697 69.8968 98.0001 73.5001 98.0001C77.1033 98.0001 80.0333 95.0698 80.0333 91.4668C80.0333 87.8638 77.1033 84.9333 73.5001 84.9333ZM73.5001 94.7334C71.6985 94.7334 70.2333 93.2683 70.2333 91.4666C70.2333 89.6649 71.6985 88.2001 73.5001 88.2001C75.3016 88.2001 76.7668 89.6651 76.7668 91.4668C76.7668 93.2685 75.3016 94.7334 73.5001 94.7334Z" fill="#1A262F"/>
<path d="M70.3333 86.9981L56.2425 80.1953C55.429 79.8016 54.454 80.1431 54.062 80.9566C53.67 81.7683 54.0113 82.7451 54.8232 83.1371L68.914 89.9398C69.1427 90.0508 69.3845 90.1031 69.6228 90.1031C70.2303 90.1031 70.8135 89.7633 71.0945 89.1786C71.4863 88.3667 71.145 87.3901 70.3333 86.9981Z" fill="#1A262F"/>
<path d="M49.0001 44.1001C45.3968 44.1001 42.4668 47.0303 42.4668 50.6334C42.4668 54.2366 45.397 57.1666 49.0001 57.1666C52.6033 57.1666 55.5333 54.2364 55.5333 50.6334C55.5333 47.0303 52.6033 44.1001 49.0001 44.1001ZM49.0001 53.9001C47.1985 53.9001 45.7333 52.4351 45.7333 50.6334C45.7333 48.8319 47.1984 47.3666 49.0001 47.3666C50.8016 47.3666 52.2668 48.8317 52.2668 50.6334C52.2668 52.4351 50.8016 53.9001 49.0001 53.9001Z" fill="#1A262F"/>
<path d="M46.1293 46.3475L35.3052 37.9113C34.593 37.3608 33.5675 37.4833 33.012 38.1955C32.4583 38.9077 32.584 39.9333 33.2962 40.4887L44.1203 48.925C44.4192 49.1569 44.772 49.2697 45.1232 49.2697C45.61 49.2697 46.0902 49.0542 46.4135 48.6409C46.9672 47.9285 46.8415 46.9028 46.1293 46.3475Z" fill="#1A262F"/>
<path d="M78.3993 42.4668C68.4931 42.4668 60.4326 50.5273 60.4326 60.4335C60.4326 70.3398 68.4931 78.4003 78.3993 78.4003C88.3056 78.4003 96.3661 70.3398 96.3661 60.4335C96.3661 50.5273 88.3056 42.4668 78.3993 42.4668ZM78.3993 75.1333C70.2931 75.1333 63.6993 68.5396 63.6993 60.4333C63.6993 52.3271 70.2931 45.7333 78.3993 45.7333C86.5056 45.7333 93.0993 52.3271 93.0993 60.4333C93.0993 68.5396 86.5056 75.1333 78.3993 75.1333Z" fill="#1A262F"/>
<path d="M78.4005 49C74.7972 49 71.8672 51.9302 71.8672 55.5333C71.8672 59.1365 74.7974 62.0665 78.4005 62.0665C82.0037 62.0665 84.9337 59.1363 84.9337 55.5333C84.9337 51.9302 82.0037 49 78.4005 49ZM78.4005 58.8C76.5989 58.8 75.1337 57.335 75.1337 55.5333C75.1337 53.7318 76.5987 52.2665 78.4005 52.2665C80.202 52.2665 81.6672 53.7316 81.6672 55.5333C81.6672 57.335 80.202 58.8 78.4005 58.8Z" fill="#1A262F"/>
<path d="M83.1379 65.3333H73.6613C70.8701 65.3333 68.5996 67.5432 68.5996 70.2578V74.5632C68.5996 75.1463 68.9099 75.6853 69.4146 75.9777C72.1521 77.562 75.2586 78.4 78.3996 78.4C81.5406 78.4 84.6471 77.562 87.3846 75.9777C87.8893 75.687 88.1996 75.1463 88.1996 74.565V70.2595C88.1996 67.5432 85.9293 65.3333 83.1379 65.3333ZM84.9329 73.5898C80.8676 75.615 75.9316 75.615 71.8662 73.5898V70.2595C71.8662 69.3447 72.6714 68.6 73.6612 68.6H83.1377C84.1274 68.6 84.9327 69.3447 84.9327 70.2595V73.5898H84.9329Z" fill="#1A262F"/>
<path d="M39.2001 62.0667C29.2939 62.0667 21.2334 70.1271 21.2334 80.0334C21.2334 89.9396 29.2939 97.9999 39.2001 97.9999C49.1064 97.9999 57.1668 89.9394 57.1668 80.0332C57.1668 70.127 49.1064 62.0667 39.2001 62.0667ZM39.2001 94.7332C31.0939 94.7332 24.5001 88.1394 24.5001 80.0332C24.5001 71.9269 31.0939 65.3332 39.2001 65.3332C47.3064 65.3332 53.9001 71.9269 53.9001 80.0332C53.9001 88.1394 47.3064 94.7332 39.2001 94.7332Z" fill="#1A262F"/>
<path d="M39.2003 68.6001C35.597 68.6001 32.667 71.5303 32.667 75.1334C32.667 78.7366 35.5972 81.6666 39.2003 81.6666C42.8033 81.6666 45.7335 78.7364 45.7335 75.1334C45.7335 71.5303 42.8035 68.6001 39.2003 68.6001ZM39.2003 78.4001C37.3987 78.4001 35.9335 76.9351 35.9335 75.1334C35.9335 73.3319 37.3986 71.8666 39.2003 71.8666C41.0018 71.8666 42.467 73.3317 42.467 75.1334C42.467 76.9351 41.0018 78.4001 39.2003 78.4001Z" fill="#1A262F"/>
<path d="M43.9387 84.9333H34.4621C31.6709 84.9333 29.4004 87.1433 29.4004 89.8579V94.1633C29.4004 94.7464 29.7107 95.2854 30.2154 95.5778C32.9529 97.1621 36.0594 98.0001 39.2004 98.0001C42.3414 98.0001 45.4479 97.1621 48.1854 95.5778C48.6901 95.2871 49.0004 94.7466 49.0004 94.1651V89.8596C49.0004 87.1433 46.7301 84.9333 43.9387 84.9333ZM45.7337 93.1898C41.6682 95.2151 36.7324 95.2151 32.6669 93.1898V89.8596C32.6669 88.9448 33.4722 88.2001 34.4619 88.2001H43.9385C44.9282 88.2001 45.7335 88.9448 45.7335 89.8596V93.1898H45.7337Z" fill="#1A262F"/>
<path d="M17.9667 21.2332C8.0605 21.2332 0 29.2937 0 39.1999C0 49.1061 8.0605 57.1666 17.9667 57.1666C27.873 57.1666 35.9335 49.1061 35.9335 39.1999C35.9333 29.2937 27.8728 21.2332 17.9667 21.2332ZM17.9667 53.8999C9.86048 53.8999 3.26673 47.3061 3.26673 39.1999C3.26673 31.0936 9.86048 24.4999 17.9667 24.4999C26.073 24.4999 32.6667 31.0936 32.6667 39.1999C32.6667 47.3061 26.073 53.8999 17.9667 53.8999Z" fill="#1A262F"/>
<path d="M17.9669 27.7668C14.3636 27.7668 11.4336 30.6971 11.4336 34.3001C11.4336 37.9031 14.3638 40.8334 17.9669 40.8334C21.5701 40.8334 24.5001 37.9031 24.5001 34.3001C24.5001 30.6971 21.5699 27.7668 17.9669 27.7668ZM17.9669 37.5668C16.1653 37.5668 14.7001 36.1018 14.7001 34.3001C14.7001 32.4984 16.1652 31.0334 17.9669 31.0334C19.7684 31.0334 21.2336 32.4984 21.2336 34.3001C21.2336 36.1018 19.7684 37.5668 17.9669 37.5668Z" fill="#1A262F"/>
<path d="M22.7053 44.1001H13.2287C10.4375 44.1001 8.16699 46.3101 8.16699 49.0246V53.3301C8.16699 53.9131 8.47726 54.4521 8.982 54.7446C11.7195 56.3288 14.826 57.1668 17.967 57.1668C21.108 57.1668 24.2145 56.3288 26.952 54.7446C27.4567 54.4538 27.767 53.9131 27.767 53.3318V49.0263C27.767 46.3101 25.4965 44.1001 22.7053 44.1001ZM24.5003 52.3566C20.435 54.3819 15.499 54.3819 11.4335 52.3566V49.0263C11.4335 48.1116 12.2388 47.3668 13.2285 47.3668H22.7051C23.6948 47.3668 24.5001 48.1116 24.5001 49.0263V52.3566H24.5003Z" fill="#1A262F"/>
<path d="M57.1669 0C47.2607 0 39.2002 8.0605 39.2002 17.9667C39.2002 27.873 47.2607 35.9335 57.1669 35.9335C67.0731 35.9335 75.1336 27.873 75.1336 17.9667C75.1334 8.0605 67.073 0 57.1669 0ZM57.1669 32.6667C49.0607 32.6667 42.4669 26.073 42.4669 17.9667C42.4669 9.86048 49.0607 3.26673 57.1669 3.26673C65.2732 3.26673 71.8669 9.86048 71.8669 17.9667C71.8669 26.073 65.2732 32.6667 57.1669 32.6667Z" fill="#1A262F"/>
<path d="M57.1671 6.5332C53.5638 6.5332 50.6338 9.46344 50.6338 13.0665C50.6338 16.6695 53.564 19.5997 57.1671 19.5997C60.7701 19.5997 63.7003 16.6697 63.7003 13.0667C63.7003 9.46363 60.7701 6.5332 57.1671 6.5332ZM57.1671 16.3332C55.3655 16.3332 53.9003 14.8682 53.9003 13.0665C53.9003 11.265 55.3654 9.79974 57.1671 9.79974C58.9688 9.79974 60.4338 11.2648 60.4338 13.0665C60.4336 14.8682 58.9686 16.3332 57.1671 16.3332Z" fill="#1A262F"/>
<path d="M61.9054 22.8667H52.4289C49.6376 22.8667 47.3672 25.0767 47.3672 27.7912V32.0967C47.3672 32.6797 47.6775 33.2187 48.1822 33.5112C50.9197 35.0954 54.0262 35.9334 57.1672 35.9334C60.3082 35.9334 63.4147 35.0954 66.1522 33.5112C66.6569 33.2204 66.9672 32.6797 66.9672 32.0984V27.7929C66.9672 25.0765 64.6967 22.8667 61.9054 22.8667ZM63.7004 31.1232C59.6352 33.1485 54.6992 33.1485 50.6337 31.1232V27.7929C50.6337 26.8782 51.439 26.1334 52.4287 26.1334H61.9052C62.895 26.1334 63.7003 26.8782 63.7003 27.7929V31.1232H63.7004Z" fill="#1A262F"/>
<path d="M42.0767 16.9032C41.4905 16.2204 40.4597 16.1387 39.7737 16.7252L28.4547 26.4109C27.7687 26.9972 27.6887 28.0279 28.275 28.7139C28.5985 29.0912 29.0558 29.2856 29.5163 29.2856C29.892 29.2856 30.2693 29.1566 30.578 28.8919L41.897 19.2062C42.5832 18.6199 42.6632 17.5892 42.0767 16.9032Z" fill="#1A262F"/>
<path d="M78.073 43.1216L68.273 30.0549C67.7323 29.3314 66.7083 29.1892 65.9863 29.7282C65.2643 30.2689 65.119 31.2929 65.6595 32.0132L75.4595 45.0799C75.7813 45.5079 76.2713 45.7332 76.7678 45.7332C77.1075 45.7332 77.4523 45.627 77.7463 45.4065C78.4683 44.8659 78.6137 43.8419 78.073 43.1216Z" fill="#1A262F"/>
<path d="M64.6682 65.8347C64.1275 65.1127 63.1035 64.9674 62.3815 65.5079L53.2578 72.3499C52.5358 72.8907 52.3905 73.9147 52.931 74.6349C53.2528 75.0629 53.7428 75.2882 54.2393 75.2882C54.5806 75.2882 54.9236 75.1805 55.2178 74.9615L64.3415 68.1195C65.0635 67.5791 65.209 66.5549 64.6682 65.8347Z" fill="#1A262F"/>
<path d="M22.8665 78.3999H11.4331C10.5316 78.3999 9.7998 79.1299 9.7998 80.0332C9.7998 80.9364 10.5316 81.6664 11.4331 81.6664H22.8663C23.7679 81.6664 24.4996 80.9364 24.4996 80.0332C24.4996 79.1299 23.7681 78.3999 22.8665 78.3999Z" fill="#1A262F"/>
<path d="M17.9661 0C14.3629 0 11.4326 2.93024 11.4326 6.53327C11.4326 10.1365 14.3629 13.0665 17.9659 13.0665C21.5691 13.0665 24.4992 10.1363 24.4992 6.53327C24.4993 2.93024 21.5691 0 17.9661 0ZM17.9661 9.8C16.1646 9.8 14.6993 8.33498 14.6993 6.53327C14.6993 4.73175 16.1644 3.26654 17.9661 3.26654C19.7676 3.26654 21.2328 4.73156 21.2328 6.53327C21.2326 8.33498 19.7676 9.8 17.9661 9.8Z" fill="#1A262F"/>
<path d="M17.9663 9.80005C17.0648 9.80005 16.333 10.5301 16.333 11.4333V22.8666C16.333 23.7698 17.0648 24.4999 17.9663 24.4999C18.8678 24.4999 19.5995 23.7698 19.5995 22.8666V11.4333C19.5995 10.5301 18.8678 9.80005 17.9663 9.80005Z" fill="#1A262F"/>
</g>
<defs>
<clipPath id="clip0">
<rect width="98" height="98" fill="white"/>
</clipPath>
</defs>
</svg>
