<svg width="548" height="343" fill="none" xmlns="http://www.w3.org/2000/svg">
<g clip-path="url(#clip0)">
<path d="M155.469 215.143C155.469 215.143 128.106 179.932 280.591 146.969C280.591 146.969 368.649 132.235 375.117 145.97C375.117 145.97 391.783 253.1 328.849 343H224.871C224.871 343 170.892 281.568 155.469 215.143Z" fill="#F8B321"/>
<path d="M371.884 330.014C447.256 336.507 535.562 244.61 545.512 196.413C556.458 143.223 529.592 143.472 529.592 143.472C491.533 138.728 443.027 185.675 425.614 203.905C430.092 164.449 426.858 132.984 426.858 132.984C191.041 282.317 123.381 177.934 123.381 178.933C116.913 245.359 166.415 310.536 191.29 335.508H191.539L199.262 343H212.185C210.195 340.503 206.961 339.254 204.971 336.507C204.971 336.507 128.356 248.106 133.082 200.159C133.082 199.41 201.738 279.82 385.068 166.697C385.068 166.697 398.003 298.05 337.307 343L359.446 342.501L365.665 335.508C368.153 335.508 369.645 332.012 371.884 330.014ZM420.888 233.372C434.32 218.389 466.409 185.426 491.285 181.18C500.737 179.682 535.065 180.431 525.115 212.895C515.662 243.111 445.763 308.039 392.779 305.542C407.207 284.066 415.913 258.344 420.888 233.372Z" fill="#1A262F"/>
</g>
<path d="M174.687 130.723C170.7 150.878 185.038 153.074 192.706 151.653C195.517 151.653 200.22 149.87 196.54 142.739C191.939 133.824 185.805 134.599 186.189 128.01C186.572 121.421 199.99 101.267 206.508 89.2518C213.025 77.2367 196.54 48.1679 188.872 43.1293C181.205 38.0907 174.687 50.1059 188.872 75.2989C203.058 100.492 179.671 105.53 174.687 130.723Z" fill="#F8B321"/>
<path d="M233.828 107.275C229.02 131.643 246.311 134.299 255.557 132.58C258.947 132.58 264.619 130.425 260.181 121.802C254.633 111.024 247.236 111.961 247.698 103.994C248.161 96.0276 264.341 71.6591 272.201 57.1318C280.06 42.6044 260.181 7.45759 250.934 1.36546C241.688 -4.72667 233.828 9.80071 250.934 40.2613C268.04 70.722 239.839 76.8141 233.828 107.275Z" fill="#F8B321"/>
<path d="M306.566 107.785C303.282 124.092 315.09 125.869 321.405 124.719C323.72 124.719 327.593 123.277 324.562 117.507C320.774 110.294 315.722 110.921 316.038 105.59C316.354 100.259 327.404 83.9524 332.771 74.231C338.138 64.5097 324.562 40.9904 318.248 36.9137C311.933 32.837 306.566 42.5584 318.248 62.9418C329.93 83.3252 310.67 87.4019 306.566 107.785Z" fill="#F8B321"/>
<defs>
<clipPath id="clip0">
<rect width="548" height="224" fill="white" transform="translate(0 119)"/>
</clipPath>
</defs>
</svg>
