<svg width="66" height="66" viewBox="0 0 66 66" fill="none" xmlns="http://www.w3.org/2000/svg">
<g clip-path="url(#clip0)">
<path d="M60.2954 10.8281H5.7041C2.55899 10.8281 0 13.3871 0 16.5327V49.4285C0 52.5741 2.55899 55.1331 5.7041 55.1331H60.2954C63.441 55.1331 66 52.5741 66 49.4285V16.5327C66 13.3871 63.441 10.8281 60.2954 10.8281V10.8281ZM64.0397 49.4285C64.0397 51.493 62.3599 53.1728 60.2954 53.1728H5.7041C3.64009 53.1728 1.96028 51.493 1.96028 49.4285V16.5327C1.96028 14.4682 3.64009 12.7884 5.7041 12.7884H60.2954C62.3599 12.7884 64.0397 14.4682 64.0397 16.5327V49.4285Z" fill="white"/>
<path d="M29.3399 18.6699H6.59953C6.05823 18.6699 5.61914 19.1085 5.61914 19.6503V22.0024C5.61914 22.5437 6.05823 22.9822 6.59953 22.9822C7.14084 22.9822 7.57993 22.5437 7.57993 22.0024V20.6302H28.36V44.5474H7.57993V25.9234C7.57993 25.3821 7.14084 24.943 6.59953 24.943C6.05823 24.943 5.61914 25.3821 5.61914 25.9234V45.5272C5.61914 46.0685 6.05823 46.5076 6.59953 46.5076H29.3399C29.8812 46.5076 30.3203 46.0685 30.3203 45.5272V19.6503C30.3203 19.1085 29.8812 18.6699 29.3399 18.6699Z" fill="white"/>
<path d="M59.662 20.9429H35.0917C34.5504 20.9429 34.1113 21.382 34.1113 21.9233C34.1113 22.4646 34.5504 22.9032 35.0917 22.9032H59.662C60.2033 22.9032 60.6418 22.4646 60.6418 21.9233C60.6418 21.382 60.2033 20.9429 59.662 20.9429Z" fill="white"/>
<path d="M59.6614 28.0532H54.1723C53.631 28.0532 53.1924 28.4918 53.1924 29.0331C53.1924 29.5744 53.631 30.0135 54.1723 30.0135H59.6614C60.2027 30.0135 60.6413 29.5744 60.6413 29.0331C60.6413 28.4918 60.2027 28.0532 59.6614 28.0532Z" fill="white"/>
<path d="M35.0917 30.0135H50.2518C50.7931 30.0135 51.2322 29.5744 51.2322 29.0331C51.2322 28.4918 50.7931 28.0532 50.2518 28.0532H35.0917C34.5504 28.0532 34.1113 28.4918 34.1113 29.0331C34.1113 29.5744 34.5504 30.0135 35.0917 30.0135Z" fill="white"/>
<path d="M59.662 35.1636H35.0917C34.5504 35.1636 34.1113 35.6022 34.1113 36.1435C34.1113 36.6848 34.5504 37.1239 35.0917 37.1239H59.662C60.2033 37.1239 60.6418 36.6848 60.6418 36.1435C60.6418 35.6022 60.2033 35.1636 59.662 35.1636Z" fill="white"/>
<path d="M48.4224 42.2744H35.0917C34.5504 42.2744 34.1113 42.713 34.1113 43.2543C34.1113 43.7956 34.5504 44.2347 35.0917 44.2347H48.4224C48.9637 44.2347 49.4023 43.7956 49.4023 43.2543C49.4023 42.713 48.9637 42.2744 48.4224 42.2744Z" fill="white"/>
<path d="M11.1094 42.391C11.1094 42.9323 11.5485 43.3709 12.0898 43.3709C12.6311 43.3709 13.0702 42.9323 13.0702 42.391C13.0702 39.6885 15.2686 37.4901 17.9711 37.4901C20.6736 37.4901 22.8721 39.6885 22.8721 42.391C22.8721 42.9323 23.3106 43.3709 23.852 43.3709C24.3933 43.3709 24.8323 42.9323 24.8323 42.391C24.8323 39.8975 23.4954 37.7111 21.5009 36.5097C23.4954 35.3082 24.8323 33.1219 24.8323 30.6283C24.8323 26.8452 21.7542 23.7671 17.9711 23.7671C14.1875 23.7671 11.1094 26.8452 11.1094 30.6283C11.1094 33.1219 12.4468 35.3082 14.4413 36.5097C12.4468 37.7111 11.1094 39.8975 11.1094 42.391ZM13.0702 30.6283C13.0702 27.9258 15.2686 25.7274 17.9711 25.7274C20.6736 25.7274 22.8721 27.9258 22.8721 30.6283C22.8721 33.3308 20.6736 35.5293 17.9711 35.5293C15.2686 35.5293 13.0702 33.3308 13.0702 30.6283Z" fill="white"/>
</g>
<defs>
<clipPath id="clip0">
<rect width="66" height="66" fill="white"/>
</clipPath>
</defs>
</svg>
