<svg width="34" height="34" viewBox="0 0 34 34" fill="none" xmlns="http://www.w3.org/2000/svg">
<g clip-path="url(#clip0)">
<path d="M26.8704 21.062C26.1743 20.3372 25.3348 19.9497 24.4449 19.9497C23.5623 19.9497 22.7155 20.33 21.9908 21.0548L19.7232 23.3152C19.5366 23.2147 19.35 23.1214 19.1706 23.0282C18.9123 22.899 18.6683 22.777 18.4602 22.6478C16.3361 21.2988 14.4058 19.5407 12.5544 17.2659C11.6574 16.1321 11.0546 15.1777 10.6169 14.2089C11.2053 13.6707 11.7507 13.111 12.2817 12.5728C12.4827 12.3719 12.6836 12.1638 12.8845 11.9629C14.3915 10.4559 14.3915 8.50407 12.8845 6.99713L10.9255 5.0381C10.703 4.81564 10.4734 4.58601 10.2581 4.35638C9.82756 3.91147 9.37548 3.45221 8.90904 3.02166C8.21298 2.33277 7.38057 1.9668 6.50511 1.9668C5.62964 1.9668 4.78288 2.33277 4.06529 3.02166C4.05811 3.02883 4.05811 3.02883 4.05094 3.03601L1.61112 5.49736C0.6926 6.41588 0.168757 7.53532 0.053942 8.83417C-0.11828 10.9295 0.49885 12.8814 0.972461 14.1587C2.13496 17.2946 3.87154 20.2008 6.46205 23.3152C9.60511 27.0682 13.3868 30.0319 17.7067 32.1201C19.3572 32.9022 21.5602 33.8279 24.0216 33.9858C24.1723 33.993 24.3301 34.0002 24.4736 34.0002C26.1313 34.0002 27.5234 33.4046 28.6142 32.2205C28.6213 32.2062 28.6357 32.199 28.6429 32.1847C29.016 31.7326 29.4466 31.3235 29.8986 30.8858C30.2072 30.5916 30.523 30.283 30.8315 29.9601C31.5419 29.221 31.9151 28.3599 31.9151 27.4772C31.9151 26.5874 31.5348 25.7335 30.81 25.0159L26.8704 21.062ZM29.4394 28.6182C29.4322 28.6182 29.4322 28.6254 29.4394 28.6182C29.1595 28.9196 28.8725 29.1923 28.5639 29.4937C28.0975 29.9386 27.6239 30.405 27.179 30.9289C26.4542 31.7039 25.6003 32.0698 24.4808 32.0698C24.3732 32.0698 24.2584 32.0698 24.1507 32.0627C22.0195 31.9263 20.0389 31.0939 18.5535 30.3835C14.4919 28.4173 10.9255 25.6258 7.96182 22.0881C5.51483 19.1388 3.87871 16.4119 2.79515 13.4842C2.12779 11.6974 1.8838 10.3052 1.99144 8.99204C2.0632 8.15245 2.38612 7.45639 2.98172 6.86078L5.42872 4.41379C5.78034 4.0837 6.15349 3.9043 6.51946 3.9043C6.97154 3.9043 7.33751 4.17698 7.56714 4.40661C7.57432 4.41379 7.5815 4.42097 7.58867 4.42814C8.0264 4.83717 8.44261 5.26055 8.88034 5.71263C9.10279 5.94226 9.33242 6.17189 9.56205 6.4087L11.5211 8.36773C12.2817 9.12838 12.2817 9.83162 11.5211 10.5923C11.313 10.8004 11.1121 11.0085 10.904 11.2094C10.3012 11.8265 9.7271 12.4006 9.10279 12.9603C9.08844 12.9747 9.07409 12.9819 9.06691 12.9962C8.44978 13.6133 8.5646 14.2161 8.69376 14.6251C8.70094 14.6467 8.70812 14.6682 8.71529 14.6897C9.22478 15.924 9.94238 17.0865 11.0331 18.4714L11.0403 18.4786C13.0209 20.9184 15.109 22.8201 17.4125 24.2768C17.7067 24.4633 18.0081 24.614 18.2952 24.7576C18.5535 24.8867 18.7975 25.0087 19.0056 25.1379C19.0343 25.1522 19.063 25.1738 19.0917 25.1881C19.3357 25.3101 19.5653 25.3675 19.8021 25.3675C20.3977 25.3675 20.7709 24.9944 20.8929 24.8724L23.347 22.4182C23.591 22.1742 23.9785 21.88 24.4306 21.88C24.8755 21.88 25.2415 22.1599 25.4639 22.4039C25.4711 22.411 25.4711 22.411 25.4783 22.4182L29.4322 26.3721C30.1713 27.1041 30.1713 27.8576 29.4394 28.6182Z" fill="#1A262F"/>
<path d="M18.3746 8.08778C20.2547 8.40352 21.9625 9.29334 23.326 10.6568C24.6894 12.0202 25.572 13.7281 25.8949 15.6082C25.9739 16.0818 26.3829 16.4119 26.8493 16.4119C26.9068 16.4119 26.957 16.4047 27.0144 16.3975C27.5454 16.3114 27.897 15.8091 27.8109 15.2781C27.4234 13.0033 26.347 10.9295 24.7037 9.28616C23.0604 7.64288 20.9866 6.56649 18.7118 6.17899C18.1808 6.09287 17.6857 6.44449 17.5924 6.96834C17.4991 7.49218 17.8435 8.00167 18.3746 8.08778Z" fill="#1A262F"/>
<path d="M33.9601 14.9981C33.3215 11.2523 31.5562 7.84371 28.8437 5.13121C26.1312 2.41871 22.7226 0.653427 18.9768 0.0147691C18.453 -0.078518 17.9578 0.280279 17.8645 0.804122C17.7784 1.33514 18.13 1.83028 18.6611 1.92357C22.005 2.49047 25.0548 4.07635 27.4803 6.49464C29.9057 8.9201 31.4844 11.9699 32.0513 15.3139C32.1303 15.7875 32.5393 16.1176 33.0057 16.1176C33.0631 16.1176 33.1134 16.1104 33.1708 16.1032C33.6946 16.0243 34.0534 15.522 33.9601 14.9981Z" fill="#1A262F"/>
</g>
<defs>
<clipPath id="clip0">
<rect width="34" height="34" fill="white"/>
</clipPath>
</defs>
</svg>
