<svg width="34" height="34" viewBox="0 0 34 34" fill="none" xmlns="http://www.w3.org/2000/svg">
<g clip-path="url(#clip0)">
<path d="M29.8494 4.0625H4.15767C1.86427 4.0625 0 5.92677 0 8.22017V25.7794C0 28.0728 1.86427 29.9371 4.15767 29.9371H29.8423C32.1357 29.9371 34 28.0728 34 25.7794V8.2272C34.007 5.9338 32.1428 4.0625 29.8494 4.0625ZM32.1076 25.7794C32.1076 27.0246 31.0946 28.0377 29.8494 28.0377H4.15767C2.91248 28.0377 1.89944 27.0246 1.89944 25.7794V8.2272C1.89944 6.98201 2.91248 5.96898 4.15767 5.96898H29.8423C31.0875 5.96898 32.1006 6.98201 32.1006 8.2272V25.7794H32.1076Z" fill="#1A262F"/>
<path d="M21.4433 16.7818L29.7586 9.32474C30.1455 8.97299 30.1807 8.37501 29.829 7.98106C29.4772 7.59413 28.8792 7.55896 28.4853 7.91071L17.0183 18.2029L14.7812 16.2049C14.7741 16.1979 14.7671 16.1909 14.7671 16.1838C14.7178 16.1346 14.6686 16.0924 14.6123 16.0502L5.50907 7.90367C5.11511 7.55192 4.51714 7.5871 4.16539 7.98106C3.81364 8.37501 3.84882 8.97299 4.24278 9.32474L12.6566 16.8451L4.27795 24.6891C3.89806 25.0479 3.87696 25.6459 4.23574 26.0328C4.42568 26.2298 4.67894 26.3353 4.9322 26.3353C5.16436 26.3353 5.39651 26.2509 5.57942 26.082L14.0847 18.1255L16.3922 20.1867C16.5751 20.3485 16.8002 20.4259 17.0253 20.4259C17.2504 20.4259 17.4826 20.3415 17.6585 20.1797L20.0292 18.0551L28.4853 26.0891C28.6682 26.2649 28.9074 26.3494 29.1395 26.3494C29.3928 26.3494 29.639 26.2509 29.829 26.0539C30.1877 25.674 30.1737 25.069 29.7938 24.7102L21.4433 16.7818Z" fill="#1A262F"/>
</g>
<defs>
<clipPath id="clip0">
<rect width="34" height="34" fill="white"/>
</clipPath>
</defs>
</svg>
