<svg width="34" height="34" viewBox="0 0 34 34" fill="none" xmlns="http://www.w3.org/2000/svg">
<g clip-path="url(#clip0)">
<path d="M33.5889 3.48487L30.1903 1.14838C30.0321 1.03971 29.8447 0.981445 29.6529 0.981445H17.2271C16.7033 0.981445 16.2786 1.40609 16.2786 1.92992V8.36083H4.34685C4.15498 8.36083 3.96759 8.41909 3.80947 8.52762L0.411095 10.8641C0.153788 11.0411 0 11.3335 0 11.6458C0 11.9581 0.153788 12.2504 0.411095 12.4273L3.8096 14.7638C3.96773 14.8725 4.15512 14.9308 4.34698 14.9308H16.2788V31.122H12.319C11.7952 31.122 11.3706 31.5466 11.3706 32.0704C11.3706 32.5943 11.7952 33.0189 12.319 33.0189H21.7685C22.2923 33.0189 22.717 32.5943 22.717 32.0704C22.717 31.5466 22.2923 31.122 21.7685 31.122H18.1756V7.55124H29.6529C29.8447 7.55124 30.0321 7.49297 30.1903 7.38431L33.5888 5.04795C33.8461 4.87099 33.9999 4.57873 33.9999 4.26627C33.9999 3.95382 33.8462 3.66169 33.5889 3.48487ZM4.64155 13.0338L2.62266 11.6458L4.64155 10.2578H16.2786V13.0338H4.64155ZM29.3583 5.65429H18.1756V2.87839H29.3583L31.3772 4.26641L29.3583 5.65429Z" fill="#1A262F"/>
</g>
<defs>
<clipPath id="clip0">
<rect width="34" height="34" fill="white"/>
</clipPath>
</defs>
</svg>
