<svg width="28" height="42" viewBox="0 0 28 42" fill="none" xmlns="http://www.w3.org/2000/svg">
<path d="M14.0195 35.2853L6.65564 27.5007L9.03935 25.2458L14.0131 30.5038L18.9574 25.249L21.3472 27.4975L14.0195 35.2853ZM27.6172 32.1562V9.84375C27.6172 4.41591 23.2013 0 17.7734 0H10.2266C4.79872 0 0.382812 4.41591 0.382812 9.84375V32.1562C0.382812 37.5841 4.79872 42 10.2266 42H17.7734C23.2013 42 27.6172 37.5841 27.6172 32.1562ZM17.7734 3.28125C21.3921 3.28125 24.3359 6.22508 24.3359 9.84375V32.1562C24.3359 35.7749 21.3921 38.7188 17.7734 38.7188H10.2266C6.60789 38.7188 3.66406 35.7749 3.66406 32.1562V9.84375C3.66406 6.22508 6.60789 3.28125 10.2266 3.28125H17.7734ZM14 6.64453C13.0938 6.64453 12.3594 7.37897 12.3594 8.28516C12.3594 9.19135 13.0938 9.92578 14 9.92578C14.9062 9.92578 15.6406 9.19135 15.6406 8.28516C15.6406 7.37897 14.9062 6.64453 14 6.64453ZM14 13.207C13.0938 13.207 12.3594 13.9415 12.3594 14.8477C12.3594 15.7538 13.0938 16.4883 14 16.4883C14.9062 16.4883 15.6406 15.7538 15.6406 14.8477C15.6406 13.9415 14.9062 13.207 14 13.207ZM14 19.7695C13.0938 19.7695 12.3594 20.504 12.3594 21.4102C12.3594 22.3163 13.0938 23.0508 14 23.0508C14.9062 23.0508 15.6406 22.3163 15.6406 21.4102C15.6406 20.504 14.9062 19.7695 14 19.7695Z" fill="white"/>
</svg>
