<svg width="98" height="98" viewBox="0 0 98 98" fill="none" xmlns="http://www.w3.org/2000/svg">
<g clip-path="url(#clip0)">
<path d="M96.5645 80.754C95.7715 80.754 95.1289 81.3967 95.1289 82.1895V91.7815C95.1289 91.9147 95.0206 92.0232 94.8872 92.0232H89.4325V71.0495C89.4325 70.2567 88.7899 69.614 87.9969 69.614C87.2039 69.614 86.5614 70.2567 86.5614 71.0495V92.0234H76.0207L78.8736 88.8849C79.3142 88.4001 79.5219 87.7116 79.4294 87.043C79.4273 87.0287 79.4252 87.0145 79.4227 87.0001L76.2157 68.0517L76.8058 67.1634L76.9595 67.2725C77.4857 67.6463 78.1568 67.7826 78.806 67.6205C79.4436 67.4611 79.9778 67.0321 80.2714 66.4441V66.4439L83.5347 59.9034L90.989 62.7904C91.2832 62.9182 95.1282 64.6813 95.1282 69.2685V75.49C95.1283 76.283 95.7709 76.9257 96.5639 76.9257C97.3569 76.9257 97.9994 76.283 97.9994 75.4901V69.2687C97.9994 62.6441 92.3175 60.2322 92.0758 60.1327C92.0666 60.1289 92.0576 60.1252 92.0484 60.1218L79.355 55.2057V52.5911C81.3364 50.9971 82.7279 48.6996 83.1458 46.0806C84.134 45.9566 85.0508 45.561 85.8117 44.9066C86.9027 43.9683 87.5288 42.603 87.5288 41.1611C87.5288 40.0102 87.1293 38.9088 86.414 38.0341V34.1604C86.414 26.5796 80.2465 20.4123 72.6661 20.4123C69.2627 20.4123 66.1466 21.658 63.7431 23.7141C63.7121 22.6141 63.3184 21.5659 62.6322 20.7268V16.8533C62.6322 9.27251 56.4647 3.10522 48.8843 3.10522C41.3035 3.10522 35.1362 9.27271 35.1362 16.8533V20.8279C34.4462 21.6525 34.0601 22.6466 34.026 23.7018C32.4925 22.3913 30.6571 21.4046 28.6115 20.866C27.8436 20.6638 27.0594 21.1219 26.8575 21.8887C26.6556 22.6554 27.1134 23.4408 27.8802 23.6427C32.6487 24.8983 35.9791 29.2235 35.9791 34.1603V36.3073C35.9171 36.2944 35.7181 36.2602 35.7104 36.259C35.6909 35.8538 35.5883 35.6063 35.3674 35.2886C34.9999 34.7605 34.3399 34.1026 32.2172 31.8211C31.4608 31.0086 30.2373 30.8595 29.3086 31.4666C25.6729 33.8416 21.2558 35.052 17.1567 34.8114C15.8214 34.7331 14.9875 35.3198 14.632 36.2812C14.6002 36.2864 14.2452 36.358 14.2255 36.3628V34.1603C14.2255 29.4002 17.4063 25.1179 21.9604 23.7461C22.7195 23.5175 23.1496 22.7167 22.921 21.9574C22.6923 21.1981 21.8903 20.768 21.1322 20.9969C18.3625 21.831 15.8729 23.5679 14.1225 25.8869C12.3112 28.286 11.354 31.147 11.354 34.1604V38.1352C10.6309 38.9992 10.2398 40.0492 10.2398 41.1611C10.2398 43.6188 12.0505 45.7621 14.6303 46.0818C15.0529 48.6395 16.4406 51.0924 18.6307 52.7601V55.2065L5.95138 60.1222C5.94239 60.1256 5.93339 60.1293 5.92439 60.1329C5.68208 60.2322 0 62.6439 0 69.2685V91.7815C0 93.4982 1.3965 94.8945 3.11322 94.8945H47.3224C47.9403 94.8945 48.5151 94.7113 49.0001 94.3997C49.4847 94.7113 50.0597 94.8945 50.6778 94.8945H94.8872C96.6037 94.8945 98.0002 93.4982 98.0002 91.7815V82.1895C98 81.3967 97.3575 80.754 96.5645 80.754ZM14.4898 43.1156C13.6482 42.8101 13.1105 42.0316 13.1105 41.1607C13.1105 40.3161 13.723 39.622 14.4898 39.2926V43.1156ZM80.8458 58.8619L78.0279 64.5096C78.0276 64.5092 74.8979 62.2864 74.8535 62.2548C76.2037 60.5881 75.5693 61.3711 78.3769 57.9059L80.8458 58.8619ZM72.7783 60.255L69.0656 55.6722V54.295C70.2724 54.7123 71.5724 54.9048 72.7961 54.9052C72.7962 54.9052 72.7966 54.9052 72.7968 54.9052H72.797C74.0622 54.905 75.3431 54.6648 76.4839 54.2355V55.681L72.7783 60.255ZM74.4638 65.5001L73.9357 66.295H71.6214L71.0933 65.5001L72.7786 64.3032L74.4638 65.5001ZM48.9963 42.9477L45.2836 38.3649V36.9877C46.4856 37.4032 47.7843 37.5975 49.0141 37.5979C49.0143 37.5979 49.0146 37.5979 49.0148 37.5979H49.015C50.2779 37.5979 51.5586 37.3585 52.7019 36.9284V38.3737L48.9963 42.9477ZM50.6816 48.1932L50.1535 48.9881H47.8392L47.3111 48.1932L48.9965 46.9963L50.6816 48.1932ZM37.6913 28.6369C37.9259 28.7008 38.1671 28.7442 38.4119 28.7745C38.8345 31.3322 40.2222 33.7851 42.4123 35.4528V37.8992L39.4836 39.0344C39.3138 38.6778 39.1015 38.3419 38.8497 38.0339V34.1604C38.8497 32.2123 38.4393 30.3396 37.6913 28.6369ZM56.6247 27.1167C56.6247 31.3186 53.1971 34.7262 49.015 34.7262C44.2967 34.7262 41.1435 31.0694 41.1435 27.1167V20.3922C45.6765 20.5737 50.3857 19.2302 54.2358 16.8338C55.5303 18.2219 56.3005 19.0283 56.6249 19.4027C56.6248 22.9768 56.6247 24.3568 56.6247 27.1167ZM59.364 28.7735C59.6074 28.7429 59.8475 28.6993 60.0808 28.6355C59.3351 30.3275 58.9178 32.1957 58.9178 34.1604V38.135C58.6971 38.3986 58.5072 38.6793 58.3501 38.9739L55.5732 37.8986V35.284C57.5544 33.6898 58.9461 31.3923 59.364 28.7735ZM43.3927 40.6009L46.9168 44.9508L44.5135 46.6577C44.5122 46.6587 44.5112 46.6596 44.5099 46.6606L43.7472 47.2025L40.9291 41.555L43.3927 40.6009ZM52.3003 43.4306L54.5947 40.5986L57.0636 41.5546L54.246 47.2025L53.4815 46.6596C53.4807 46.6591 53.48 46.6583 53.4792 46.6577L51.0715 44.9475L52.3003 43.4306ZM53.0238 49.8563L53.1775 49.9654C53.7142 50.3467 54.3878 50.4726 55.024 50.3134C55.6616 50.1539 56.1958 49.725 56.4894 49.137V49.1368L58.9122 44.281C59.7447 45.307 60.9486 45.931 62.1885 46.0858C62.6265 48.8306 64.1101 51.173 66.1945 52.7601V55.2063L53.9897 59.938L52.4335 50.7448L53.0238 49.8563ZM67.1747 57.908L70.6988 62.2579C69.158 63.3525 67.609 64.4529 67.5291 64.5096L64.7111 58.8621L67.1747 57.908ZM80.4065 44.424C80.4069 48.5234 77.0778 52.0336 72.797 52.0336C67.9177 52.0336 64.9254 48.2119 64.9254 44.424V37.6995C69.4262 37.8793 74.1414 36.5536 78.0176 34.1411C79.3121 35.5292 80.0823 36.3356 80.4067 36.71C80.4065 40.2839 80.4065 41.6641 80.4065 44.424ZM84.6577 41.1609C84.6577 42.0334 84.1183 42.8103 83.2784 43.1156V39.2103C84.1466 39.5265 84.6577 40.3199 84.6577 41.1609ZM61.7891 34.1603C61.7891 28.1627 66.6686 23.2834 72.6659 23.2834C78.6634 23.2834 83.5425 28.1629 83.5425 34.1603V36.3073C83.4773 36.2937 83.2977 36.2627 83.2738 36.259C83.2543 35.8534 83.1511 35.6054 82.9308 35.2886C82.5536 34.7467 81.9008 34.1002 79.7806 31.8211C79.0403 31.0264 77.8195 30.8474 76.872 31.4666C73.3349 33.7773 68.8659 35.0824 64.6135 34.8062C63.4189 34.728 62.5535 35.3129 62.1954 36.2814C62.1635 36.2866 61.809 36.3582 61.7889 36.363V34.1603H61.7891ZM62.0542 39.2928V43.1137C61.2101 42.8093 60.6749 42.0288 60.6749 41.1607C60.6747 40.3161 61.2868 39.6224 62.0542 39.2928ZM60.8753 23.8538C60.8753 24.4583 60.6136 25.03 60.1575 25.4222C59.9617 25.5906 59.7385 25.72 59.496 25.8083V21.903C60.3545 22.2146 60.8753 23.0038 60.8753 23.8538ZM48.8837 5.97631C54.8812 5.97631 59.7606 10.8556 59.7606 16.8531V19.0001C59.6957 18.9867 59.5157 18.9555 59.4918 18.9519C59.4706 18.5123 59.3439 18.242 59.0853 17.8923C58.7009 17.372 57.9923 16.6568 55.9987 14.5138C55.2459 13.7055 54.0232 13.5495 53.0901 14.1593C49.3546 16.5997 44.823 17.7874 40.7157 17.4932C39.7108 17.4172 38.7647 18.0244 38.4136 18.9739C38.3817 18.9791 38.027 19.0507 38.0071 19.0555V16.8533H38.0069C38.0069 10.8556 42.8864 5.97631 48.8837 5.97631ZM38.2718 21.9855V25.8085C37.4302 25.503 36.8925 24.7245 36.8925 23.8536C36.8925 23.0137 37.5002 22.3172 38.2718 21.9855ZM35.7138 39.2103C36.517 39.5026 37.0328 40.2033 37.0839 41.0361C37.1482 41.9622 36.5792 42.7996 35.7138 43.1138V39.2103ZM35.5808 46.0854C36.9348 45.916 38.1776 45.2025 38.9926 44.1047L41.5035 49.1368C41.5035 49.1368 41.5035 49.1368 41.5037 49.137C41.7971 49.7252 42.3313 50.1539 42.9689 50.3134C43.5992 50.4709 44.2735 50.3503 44.8154 49.9654L44.9691 49.8563L45.5592 50.7446L44.0036 59.9354L31.7912 55.2055V52.5921H31.791C33.8243 50.9527 35.1727 48.6363 35.5808 46.0854ZM25.2139 60.255L21.5012 55.6722V54.295C22.7032 54.7106 24.0021 54.9048 25.2319 54.905C25.2321 54.905 25.2325 54.905 25.2327 54.905C26.5162 54.905 27.7948 54.6585 28.9195 54.2355V55.681L25.2139 60.255ZM26.8994 65.5001L26.3713 66.295H24.057L23.5289 65.5001L25.2143 64.3032L26.8994 65.5001ZM30.8123 57.9059L33.2815 58.8621L30.4636 64.5096L29.6991 63.9668C29.6983 63.9662 29.6976 63.9654 29.6968 63.9648L27.2891 62.2548L30.8123 57.9059ZM17.3611 44.424V37.6995C21.9183 37.8816 26.6305 36.5203 30.4532 34.1411C31.7355 35.5162 32.5176 36.3352 32.8424 36.71C32.8424 40.2841 32.8424 41.6643 32.8424 44.424C32.8424 48.5992 29.4382 52.0336 25.2327 52.0336C20.5503 52.0336 17.3611 48.4185 17.3611 44.424ZM19.6105 57.908L23.1347 62.2579L20.7314 63.9648C20.73 63.9658 20.7291 63.9668 20.7277 63.9677L19.965 64.5096L17.1469 58.8621L19.6105 57.908ZM11.439 92.0236V71.0495C11.439 70.2567 10.7964 69.614 10.0034 69.614C9.21045 69.614 8.5679 70.2567 8.5679 71.0495V92.0234H3.11322C2.97962 92.0234 2.87128 91.9149 2.87128 91.7817V69.2685C2.87128 64.6577 6.75624 62.9002 7.00775 62.7915L14.4575 59.9034L17.7211 66.4439C17.7211 66.4439 17.7211 66.4439 17.7213 66.4441C18.0147 67.0323 18.549 67.4611 19.1867 67.6205C19.817 67.778 20.4913 67.6574 21.0332 67.2725L21.1869 67.1634L21.777 68.0517L18.57 87.0001C18.5675 87.0143 18.5654 87.0287 18.5633 87.043C18.4711 87.7112 18.6787 88.3997 19.1195 88.8853L21.9721 92.0234H11.439V92.0236ZM21.4514 87.1816L24.5003 69.1663H25.928L28.9771 87.1816L25.2143 91.3211L21.4514 87.1816ZM47.5642 91.7815C47.5642 91.9149 47.4558 92.0234 47.3224 92.0234H41.8681V71.0495C41.8681 70.2567 41.2256 69.614 40.4326 69.614C39.6396 69.614 38.997 70.2567 38.997 71.0495V92.0234H28.4563L31.3092 88.8849C31.7498 88.4001 31.9575 87.7116 31.8651 87.043C31.863 87.0287 31.8608 87.0145 31.8584 87.0001L28.6514 68.0517L29.2415 67.1634L29.3952 67.2725C29.7793 67.5455 30.2341 67.6879 30.6956 67.6879C31.5376 67.6879 32.3218 67.2161 32.7072 66.4441V66.4439L35.9705 59.9036L43.4248 62.7906C45.5977 63.7357 47.564 66.1733 47.564 69.2685V91.7815H47.5642ZM48.9999 64.0519C48.4052 63.0938 47.6136 62.2072 46.6592 61.4505L48.2825 51.8594H49.7102L51.3343 61.4555C50.3545 62.2336 49.5732 63.1282 48.9999 64.0519ZM59.0032 92.0236V71.0495C59.0032 70.2567 58.3606 69.614 57.5676 69.614C56.7746 69.614 56.1321 70.2567 56.1321 71.0495V92.0234H50.6776C50.5442 92.0234 50.4356 91.9149 50.4356 91.7817V69.2685C50.4356 67.5619 50.9708 65.9901 52.1108 64.6696C52.8709 63.7977 53.879 63.0918 54.5723 62.7915L62.022 59.9032L65.2857 66.4439C65.2857 66.4439 65.2857 66.4439 65.2859 66.4441C65.5793 67.0323 66.1135 67.4611 66.7511 67.6205C67.3814 67.778 68.0557 67.6574 68.5976 67.2725L68.7513 67.1634L69.3414 68.0517L66.1344 87.0001C66.1319 87.0143 66.1298 87.0287 66.1277 87.043C66.0354 87.7112 66.2431 88.3997 66.6839 88.8853L69.5364 92.0234H59.0032V92.0236ZM69.0156 87.1818L72.0647 69.1665H73.4924L76.5415 87.1818L72.7784 91.3213L69.0156 87.1818Z" fill="#1A262F"/>
</g>
<defs>
<clipPath id="clip0">
<rect width="98" height="98" fill="white"/>
</clipPath>
</defs>
</svg>
