<svg width="24" height="42" viewBox="0 0 24 42" fill="none" xmlns="http://www.w3.org/2000/svg">
<path d="M22.4985 0.00873871L17.0521 0C10.9333 0 6.97899 4.05695 6.97899 10.3361V15.1018H1.50288C1.02968 15.1018 0.646484 15.4854 0.646484 15.9586V22.8635C0.646484 23.3367 1.03011 23.7199 1.50288 23.7199H6.97899V41.1432C6.97899 41.6164 7.36218 41.9996 7.83539 41.9996H14.9802C15.4534 41.9996 15.8366 41.6159 15.8366 41.1432V23.7199H22.2394C22.7126 23.7199 23.0958 23.3367 23.0958 22.8635L23.0984 15.9586C23.0984 15.7314 23.008 15.5138 22.8476 15.353C22.6873 15.1923 22.4688 15.1018 22.2416 15.1018H15.8366V11.0619C15.8366 9.12016 16.2993 8.13443 18.8287 8.13443L22.4976 8.13312C22.9704 8.13312 23.3536 7.74949 23.3536 7.27673V0.865133C23.3536 0.392805 22.9708 0.00961258 22.4985 0.00873871Z" fill="white"/>
</svg>
