<svg width="30" height="26" viewBox="0 0 30 26" fill="none" xmlns="http://www.w3.org/2000/svg">
<path d="M27.8512 1.06852L27.3667 0.568481L26.7356 0.862329C22.1166 3.01313 18.7806 5.1927 16.2372 7.72155C13.8291 10.1159 12.3038 12.66 10.8266 15.2734C10.7899 15.3383 10.6063 15.4335 10.2097 15.4884C9.67125 15.5629 8.94217 15.5385 8.17049 15.5126C6.4483 15.455 4.49631 15.3897 2.96654 16.2867C0.970371 17.4571 0 19.6108 0 22.8709V23.5463L0.631523 23.7856C0.80877 23.8529 5.02734 25.4315 9.73359 25.4315C12.3043 25.4315 13.8287 25.0941 14.9955 24.2667C16.1904 23.4194 16.904 22.1576 17.8028 20.1254C19.2707 16.8053 20.5972 14.6523 21.8948 13.2588C23.175 16.2234 23.4762 22.1597 23.4768 24.4535L23.4771 25.4316H27.2197L27.2606 24.4961C27.5242 18.476 28.4576 14.8993 29.1391 12.2877C29.6201 10.4447 30 8.98911 30 7.38815C30 3.33317 27.9389 1.15905 27.8512 1.06852ZM27.2461 11.7935C26.6051 14.2499 25.7483 17.5332 25.3946 22.806C25.3571 21.8443 25.2832 20.5463 25.1375 19.1425C24.8014 15.9031 24.2278 13.4866 23.4284 11.9361C24.7355 11.0702 26.0586 10.8159 27.5145 10.7522C27.4309 11.0855 27.3405 11.4315 27.2461 11.7935ZM27.931 8.78286C25.9365 8.82791 23.846 9.14965 21.8589 10.6528C19.8012 12.2094 17.9438 14.968 16.0134 19.3341C15.256 21.0465 14.689 22.0855 13.8638 22.6707C13.0582 23.2419 11.8615 23.475 9.73359 23.475C6.4227 23.475 3.28945 22.5986 1.97467 22.1772C2.03279 21.104 2.2299 20.2105 2.56295 19.5147C2.88674 18.8381 3.34248 18.3343 3.95619 17.9744C4.99717 17.364 6.64828 17.4195 8.10504 17.468C9.98713 17.5313 11.7645 17.5905 12.53 16.2362C13.991 13.6513 15.3822 11.3307 17.6168 9.10899C19.8647 6.87393 22.8119 4.9135 26.8511 2.97206C27.3265 3.70958 28.0435 5.1869 28.0435 7.38809C28.0435 7.84846 28.0026 8.3086 27.931 8.78286Z" fill="#1A262F"/>
</svg>
