<svg width="42" height="42" viewBox="0 0 42 42" fill="none" xmlns="http://www.w3.org/2000/svg">
<path d="M37.8 0H4.2C1.89 0 0 1.89 0 4.2V37.8C0 40.11 1.89 42 4.2 42H37.8C40.11 42 42 40.11 42 37.8V4.2C42 1.89 40.11 0 37.8 0ZM21 12.6C25.62 12.6 29.4 16.38 29.4 21C29.4 25.62 25.62 29.4 21 29.4C16.38 29.4 12.6 25.62 12.6 21C12.6 16.38 16.38 12.6 21 12.6ZM5.25 37.8C4.62 37.8 4.2 37.38 4.2 36.75V18.9H8.61C8.4 19.53 8.4 20.37 8.4 21C8.4 27.93 14.07 33.6 21 33.6C27.93 33.6 33.6 27.93 33.6 21C33.6 20.37 33.6 19.53 33.39 18.9H37.8V36.75C37.8 37.38 37.38 37.8 36.75 37.8H5.25ZM37.8 9.45C37.8 10.08 37.38 10.5 36.75 10.5H32.55C31.92 10.5 31.5 10.08 31.5 9.45V5.25C31.5 4.62 31.92 4.2 32.55 4.2H36.75C37.38 4.2 37.8 4.62 37.8 5.25V9.45Z" fill="white"/>
</svg>
