<svg width="42" height="42" viewBox="0 0 42 42" fill="none" xmlns="http://www.w3.org/2000/svg">
<g clip-path="url(#clip0)">
<path d="M9.5429 13.9727H0.519531V41.07H9.5429V13.9727Z" fill="white"/>
<path d="M39.1557 16.4478C37.2603 14.3787 34.7533 13.344 31.6364 13.344C30.488 13.344 29.444 13.4853 28.5051 13.768C27.5664 14.0505 26.7736 14.4469 26.1263 14.9574C25.4793 15.4679 24.9641 15.9417 24.5815 16.379C24.2178 16.7944 23.8621 17.2783 23.515 17.8256V13.9725H14.5186L14.5461 15.2851C14.5646 16.1604 14.5737 18.8581 14.5737 23.3787C14.5737 27.8997 14.5555 33.7967 14.5189 41.0701H23.515V25.9488C23.515 25.0193 23.6147 24.2812 23.8156 23.7339C24.1987 22.8037 24.7769 22.025 25.5521 21.3963C26.3272 20.7669 27.2885 20.4525 28.4373 20.4525C30.0045 20.4525 31.1579 20.9947 31.8963 22.0794C32.6344 23.1639 33.0036 24.6633 33.0036 26.5775V41.0693H41.9996V25.5391C41.999 21.5465 41.0518 18.5162 39.1557 16.4478Z" fill="white"/>
<path d="M5.08584 0.929688C3.57301 0.929688 2.34721 1.37206 1.40815 2.25595C0.469193 3.14004 0 4.25618 0 5.60543C0 6.93582 0.455689 8.04813 1.36716 8.94112C2.27835 9.8342 3.48164 10.281 4.97638 10.281H5.03106C6.56248 10.281 7.79766 9.83459 8.73634 8.94112C9.67501 8.04813 10.1352 6.9362 10.1171 5.60543C10.0989 4.25627 9.63373 3.14004 8.72254 2.25595C7.81145 1.37168 6.59877 0.929688 5.08584 0.929688Z" fill="white"/>
</g>
<defs>
<clipPath id="clip0">
<rect width="42" height="41.9999" fill="white"/>
</clipPath>
</defs>
</svg>
