<svg viewBox="0 0 100 36" fill="none" xmlns="http://www.w3.org/2000/svg">
<path d="M0.312 4.76H6.888V29.816H19.08V35H0.312V4.76ZM22.8611 35V12.104H29.2451V35H22.8611ZM26.0771 7.208C24.9891 7.208 24.1411 6.904 23.5331 6.296C22.9251 5.656 22.6211 4.872 22.6211 3.944C22.6211 3.016 22.9251 2.248 23.5331 1.64C24.1411 0.999998 24.9891 0.679998 26.0771 0.679998C27.1331 0.679998 27.9651 0.999998 28.5731 1.64C29.2131 2.248 29.5331 3.016 29.5331 3.944C29.5331 4.872 29.2291 5.656 28.6211 6.296C28.0131 6.904 27.1651 7.208 26.0771 7.208ZM58.3028 23.624C58.3028 25.448 58.0308 27.096 57.4868 28.568C56.9428 30.04 56.1908 31.304 55.2308 32.36C54.2708 33.384 53.1348 34.168 51.8228 34.712C50.5108 35.256 49.0868 35.528 47.5508 35.528C46.0468 35.528 44.7668 35.304 43.7108 34.856C42.6548 34.376 41.7268 33.72 40.9268 32.888H40.7348L40.3028 35H35.6948V0.727998H42.0308V13.976C42.8308 13.24 43.7588 12.664 44.8148 12.248C45.9028 11.832 47.0548 11.624 48.2708 11.624C51.4068 11.624 53.8548 12.68 55.6148 14.792C57.4068 16.904 58.3028 19.848 58.3028 23.624ZM51.7268 23.768C51.7268 21.4 51.2628 19.608 50.3348 18.392C49.4068 17.144 48.0948 16.52 46.3988 16.52C45.5028 16.52 44.6708 16.744 43.9028 17.192C43.1348 17.608 42.5268 18.088 42.0788 18.632V29.144C42.4948 29.624 43.0228 30.024 43.6628 30.344C44.3348 30.664 45.0388 30.824 45.7748 30.824C46.5428 30.824 47.2788 30.68 47.9828 30.392C48.7188 30.104 49.3588 29.672 49.9028 29.096C50.4788 28.52 50.9268 27.8 51.2468 26.936C51.5668 26.04 51.7268 24.984 51.7268 23.768ZM62.88 35V12.104H67.824L68.544 16.232C69.088 15.016 69.952 13.944 71.136 13.016C72.32 12.088 73.808 11.624 75.6 11.624C76.336 11.624 76.992 11.704 77.568 11.864C78.144 12.024 78.624 12.216 79.008 12.44L77.952 17.48C77.6 17.288 77.152 17.128 76.608 17C76.064 16.84 75.424 16.76 74.688 16.76C73.12 16.76 71.808 17.288 70.752 18.344C69.728 19.368 69.216 21.064 69.216 23.432V35H62.88ZM81.264 14.12C82.64 13.32 84.096 12.712 85.632 12.296C87.168 11.848 88.8 11.624 90.528 11.624C91.904 11.624 93.152 11.784 94.272 12.104C95.424 12.424 96.4 12.936 97.2 13.64C98.032 14.312 98.656 15.192 99.072 16.28C99.52 17.336 99.744 18.616 99.744 20.12V35H94.8L94.224 32.648H94.032C93.296 33.544 92.352 34.248 91.2 34.76C90.08 35.272 88.768 35.528 87.264 35.528C86.016 35.528 84.912 35.352 83.952 35C82.992 34.616 82.176 34.12 81.504 33.512C80.832 32.872 80.32 32.12 79.968 31.256C79.648 30.392 79.488 29.464 79.488 28.472C79.488 27.16 79.76 26.04 80.304 25.112C80.88 24.152 81.664 23.368 82.656 22.76C83.648 22.152 84.8 21.704 86.112 21.416C87.456 21.128 88.896 20.984 90.432 20.984H93.312V19.592C93.312 18.536 92.976 17.768 92.304 17.288C91.664 16.776 90.752 16.52 89.568 16.52C88.64 16.52 87.68 16.664 86.688 16.952C85.728 17.24 84.656 17.704 83.472 18.344L81.264 14.12ZM93.36 24.968L91.296 25.016C89.344 25.08 87.984 25.416 87.216 26.024C86.448 26.6 86.064 27.304 86.064 28.136C86.064 29.224 86.384 29.976 87.024 30.392C87.696 30.776 88.448 30.968 89.28 30.968C90.112 30.968 90.896 30.728 91.632 30.248C92.4 29.768 92.976 29.208 93.36 28.568V24.968Z" fill="white"/>
</svg>
