<svg width="98" height="98" viewBox="0 0 98 98" fill="none" xmlns="http://www.w3.org/2000/svg">
<g clip-path="url(#clip0)">
<path d="M58.6952 34.2617C59.7537 34.2617 60.613 33.4041 60.613 32.3477C60.613 31.2912 59.7537 30.4336 58.6952 30.4336C57.6344 30.4336 56.7773 31.2912 56.7773 32.3477C56.7773 33.4041 57.6344 34.2617 58.6952 34.2617Z" fill="#1A262F"/>
<path d="M39.5164 34.2617C40.575 34.2617 41.4342 33.4041 41.4342 32.3477C41.4342 31.2912 40.575 30.4336 39.5164 30.4336C38.4557 30.4336 37.5986 31.2912 37.5986 32.3477C37.5986 33.4041 38.4557 34.2617 39.5164 34.2617Z" fill="#1A262F"/>
<path d="M43.9785 47.418C45.5884 48.1754 47.3137 48.5597 49.1049 48.5597C50.8571 48.5597 52.5487 48.1911 54.1331 47.4643C55.0958 47.0224 55.5168 45.886 55.0748 44.9252C54.6321 43.9652 53.4934 43.5442 52.5307 43.9861C51.4527 44.4803 50.2998 44.7316 49.1049 44.7316C47.883 44.7316 46.7084 44.4706 45.6139 43.9555C44.6557 43.5046 43.5125 43.9143 43.0615 44.8706C42.6098 45.8269 43.0203 46.9671 43.9785 47.418Z" fill="#1A262F"/>
<path d="M91.4012 77.4754C91.4012 66.9503 79.3909 58.6959 69.0962 58.3049L63.8439 53.5952C70.2408 48.9372 74.1237 41.4514 74.1237 33.4961V20.8633C74.1237 9.25404 64.6298 -0.191406 52.9603 -0.191406H45.2891C33.6354 -0.191406 24.2606 9.2204 24.2606 20.8633V33.4961C24.2606 41.438 28.0918 48.9095 34.4056 53.5594L29.1136 58.3049C18.8413 58.6952 6.80859 66.9286 6.80859 77.4754V95.8945C6.80859 96.9518 7.66711 97.8086 8.7264 97.8086H89.4834C90.5426 97.8086 91.4012 96.9518 91.4012 95.8945V77.4754ZM44.8569 85.1758H53.3424L55.3531 93.9805H42.7877L44.8569 85.1758ZM53.5072 81.3477H44.7355L43.2642 76.7726L49.106 73.8574L55.0729 76.8362L53.5072 81.3477ZM49.1053 68.1062L42.4409 57.466C44.6051 58.0664 46.8541 58.3782 49.1247 58.3782C51.3737 58.3782 53.6061 58.0724 55.7591 57.4817L49.1053 68.1062ZM51.8501 70.9474L61.0578 56.2428L66.0239 60.696L59.7049 74.8683L51.8501 70.9474ZM45.2891 3.63672H52.9603C62.5149 3.63672 70.288 11.364 70.288 20.8633V22.4454L66.6869 17.2699C66.361 16.8011 65.8419 16.5021 65.2718 16.4542C64.7009 16.4064 64.1406 16.615 63.7405 17.0232C59.842 21.0023 55.3284 22.7773 49.106 22.7773C42.8844 22.7773 38.37 21.0023 34.4685 17.0232C34.0669 16.6127 33.5013 16.4049 32.9297 16.455C32.3574 16.5051 31.8375 16.8086 31.5139 17.2826L28.0963 22.2809V20.8633C28.0963 11.364 35.8087 3.63672 45.2891 3.63672ZM28.0963 33.4961V29.0721L33.4227 21.282C37.6898 24.9045 42.7323 26.6055 49.106 26.6055C55.4865 26.6055 60.5327 24.9008 64.8006 21.2708L70.288 29.1573V33.4961C70.288 44.9588 60.9005 54.5508 49.1247 54.5508C37.3871 54.5508 28.0963 44.9887 28.0963 33.4961ZM37.1519 56.2435L46.3611 70.9474L38.5049 74.8683L32.1858 60.696L37.1519 56.2435ZM10.6442 77.4754C10.6442 69.5904 20.2482 62.782 28.6409 62.1629L35.8162 78.2538C36.0289 78.7308 36.4282 79.1009 36.9212 79.2773C37.4141 79.4538 37.9572 79.4209 38.4262 79.1876L39.7926 78.505L41.3486 83.341L38.848 93.9805H10.6442V77.4754ZM87.5655 93.9805H59.2869L56.8641 83.3701L58.5325 78.5625L59.7835 79.1876C60.2555 79.4231 60.8001 79.4523 61.2886 79.2773C61.7815 79.1009 62.1808 78.7308 62.3936 78.2538L69.5689 62.1629C77.9615 62.7827 87.5655 69.5904 87.5655 77.4754V93.9805Z" fill="#1A262F"/>
<path d="M74.0373 85.1758H66.3661C65.3068 85.1758 64.4482 86.0326 64.4482 87.0898C64.4482 88.1471 65.3068 89.0039 66.3661 89.0039H74.0373C75.0966 89.0039 75.9551 88.1471 75.9551 87.0898C75.9551 86.0326 75.0966 85.1758 74.0373 85.1758Z" fill="#1A262F"/>
<path d="M81.6024 85.1758C82.6609 85.1758 83.5202 86.0334 83.5202 87.0898C83.5202 88.1463 82.6609 89.0039 81.6024 89.0039C80.5438 89.0039 79.6846 88.1463 79.6846 87.0898C79.6846 86.0334 80.5438 85.1758 81.6024 85.1758Z" fill="#1A262F"/>
</g>
<defs>
<clipPath id="clip0">
<rect width="98" height="97.9998" fill="white"/>
</clipPath>
</defs>
</svg>
