<svg width="30" height="10" viewBox="0 0 30 10" fill="none" xmlns="http://www.w3.org/2000/svg">
<path d="M7.73155 9.61622C10.3308 9.61622 12.4519 8.5681 12.5414 8.5231C12.5723 8.50763 12.6019 8.49028 12.6309 8.47153C13.9509 7.61559 14.6437 6.59513 14.9616 5.61263C15.2784 6.5956 15.9712 7.61559 17.2917 8.47153C17.3208 8.49028 17.3503 8.50763 17.3812 8.5231C17.4698 8.56763 19.5914 9.61622 22.1911 9.61622C22.1911 9.61622 22.1911 9.61622 22.192 9.61622C24.5798 9.61622 27.8428 8.72138 29.8345 4.45903C30.0103 4.08263 29.9184 3.63591 29.6091 3.35981C29.2978 3.08278 28.8426 3.04294 28.4911 3.26044C28.4826 3.2656 27.6403 3.75966 26.2786 3.75966C24.803 3.75966 23.3105 3.18685 21.8897 2.09513C21.6872 1.91794 19.8647 0.364502 17.9906 0.364502C16.7142 0.364502 15.69 1.08731 15.1144 2.38106C15.0605 2.49685 15.0098 2.63044 14.963 2.772C14.918 2.637 14.8697 2.50997 14.8181 2.40028C14.2331 1.08731 13.2084 0.364502 11.933 0.364502C10.0589 0.364502 8.23452 1.91794 8.07983 2.05669C6.61171 3.18731 5.11968 3.76013 3.64405 3.76013C2.29405 3.76013 1.43389 3.26185 1.43202 3.26091C1.08139 3.04341 0.624831 3.08325 0.31405 3.35935C0.00467473 3.63544 -0.0872003 4.08216 0.0881122 4.45856C2.0803 8.72138 5.34374 9.61622 7.73155 9.61622ZM16.8234 3.16388C17.1858 2.34872 17.6376 2.24419 17.9901 2.24419C18.9811 2.24419 20.2458 3.15731 20.6953 3.54638C22.5009 4.93575 24.3787 5.63982 26.2786 5.63982C26.4966 5.63982 26.7056 5.63044 26.9039 5.61356C25.7006 7.02403 24.1233 7.73653 22.1911 7.73653C20.2303 7.73653 18.5475 6.99403 18.2653 6.86278C15.9441 5.32388 16.7212 3.39122 16.8234 3.16388ZM3.64358 5.63935C5.54389 5.63935 7.42218 4.93481 9.27139 3.50841C9.67499 3.15685 10.9406 2.24372 11.9325 2.24372C12.285 2.24372 12.7369 2.34872 13.1048 3.17419C13.2009 3.39122 13.9776 5.32435 11.6564 6.86278C11.3728 6.99638 9.70686 7.73607 7.73155 7.73607C5.79889 7.73607 4.22249 7.02356 3.01874 5.6131C3.21702 5.62997 3.42655 5.63935 3.64358 5.63935Z" fill="white"/>
</svg>
