<svg width="504" height="365" viewBox="0 0 504 365" fill="none" xmlns="http://www.w3.org/2000/svg">
<path d="M476.6 113.722L472.508 106.369L464.221 107.825C403.57 118.485 357.806 133.495 320.203 155.061C284.6 175.481 258.835 200.41 233.415 226.299C232.784 226.942 230.343 227.48 225.54 226.879C219.021 226.064 210.586 223.499 201.658 220.783C181.733 214.723 159.149 207.854 138.484 213.541C111.519 220.961 93.4538 243.068 83.2558 281.128L81.1432 289.012L87.7671 293.782C89.6259 295.122 133.937 326.747 188.879 341.469C218.89 349.51 237.742 350.34 253.952 344.331C270.552 338.177 282.83 325.679 299.68 304.766C327.202 270.598 349.423 249.611 368.931 237.403C374.602 276.018 359.549 346.262 352.381 373.042L349.324 384.461L393.017 396.168L396.421 385.376C418.33 315.92 440.415 277.084 456.541 248.727C467.921 228.716 476.909 212.911 481.917 194.221C494.602 146.882 477.341 115.053 476.6 113.722ZM435.987 237.036C420.819 263.707 400.546 299.358 379.924 359.808C382.494 348.463 385.691 333.079 388.382 316.234C394.592 277.366 395.453 247.36 390.972 226.759C408.94 220.738 425.181 221.909 442.377 225.719C440.359 229.348 438.222 233.106 435.987 237.036ZM453.4 204.031C429.975 198.318 404.563 195.535 376.663 206.867C347.772 218.603 317.459 244.997 281.265 289.93C267.066 307.552 257.197 317.908 245.733 322.158C234.541 326.307 219.841 325.285 194.999 318.628C156.347 308.271 122.51 288.238 108.479 279.206C112.514 266.859 117.611 257.044 123.675 249.963C129.572 243.077 136.468 238.622 144.758 236.34C158.82 232.471 177.923 238.283 194.777 243.407C216.552 250.032 237.116 256.283 250.289 242.867C275.431 217.261 298.932 194.522 331.969 175.574C365.204 156.514 405.742 142.846 458.97 132.816C462.213 142.913 465.962 162.403 459.077 188.1C457.636 193.475 455.72 198.718 453.4 204.031Z" fill="#1A262F"/>
<g clip-path="url(#clip0)">
<path d="M112.173 211.343C128.366 211.343 141.581 204.813 142.138 204.533C142.331 204.437 142.515 204.329 142.696 204.212C150.92 198.879 155.236 192.522 157.216 186.401C159.19 192.525 163.506 198.879 171.733 204.212C171.914 204.329 172.098 204.437 172.29 204.533C172.842 204.811 186.06 211.343 202.256 211.343C202.256 211.343 202.256 211.343 202.261 211.343C217.137 211.343 237.466 205.768 249.874 179.214C250.969 176.869 250.397 174.086 248.469 172.366C246.53 170.64 243.695 170.392 241.504 171.747C241.452 171.779 236.204 174.857 227.721 174.857C218.528 174.857 209.229 171.288 200.378 164.487C199.116 163.383 187.762 153.705 176.087 153.705C168.135 153.705 161.754 158.208 158.168 166.268C157.832 166.99 157.517 167.822 157.225 168.704C156.944 167.863 156.643 167.072 156.322 166.388C152.678 158.208 146.294 153.705 138.348 153.705C126.672 153.705 115.307 163.383 114.343 164.248C105.197 171.291 95.9013 174.86 86.7082 174.86C78.2977 174.86 72.939 171.756 72.9273 171.75C70.7429 170.395 67.8985 170.643 65.9624 172.363C64.035 174.083 63.4626 176.866 64.5548 179.211C76.9661 205.768 97.2972 211.343 112.173 211.343ZM168.815 171.145C171.073 166.067 173.888 165.416 176.084 165.416C182.257 165.416 190.136 171.104 192.937 173.528C204.186 182.184 215.885 186.57 227.721 186.57C229.079 186.57 230.381 186.512 231.616 186.407C224.12 195.194 214.293 199.633 202.256 199.633C190.04 199.633 179.556 195.007 177.798 194.189C163.337 184.602 168.179 172.562 168.815 171.145ZM86.7053 186.567C98.5441 186.567 110.246 182.178 121.766 173.292C124.281 171.102 132.166 165.413 138.345 165.413C140.541 165.413 143.356 166.067 145.649 171.21C146.247 172.562 151.086 184.605 136.625 194.189C134.858 195.022 124.479 199.63 112.173 199.63C100.133 199.63 90.3118 195.191 82.8125 186.404C84.0478 186.509 85.3532 186.567 86.7053 186.567Z" fill="#F8B321"/>
</g>
<defs>
<clipPath id="clip0">
<rect width="186.899" height="186.899" fill="white" transform="translate(45.3906 121.489) rotate(-15)"/>
</clipPath>
</defs>
</svg>
