<svg width="396" height="396" fill="none" xmlns="http://www.w3.org/2000/svg">
<g clip-path="url(#clip0)">
<path d="M58.3042 217.179C53.3884 241.858 69.1136 266.053 93.7661 271.373C118.676 276.78 143.321 260.911 148.703 236.001L156.285 166.466C131.375 152.949 140.503 208.975 97.4782 199.69C67.9269 193.294 59.8716 212.203 58.3042 217.179Z" fill="#F8B321"/>
<path d="M378.194 300.673C376.246 294.832 369.911 291.605 364.082 293.595L333.051 303.912L313.537 245.217C329.565 237.35 342.704 224.824 350.844 208.569C360.683 188.933 362.279 166.642 355 144.886L304.018 27.0466L168.454 72.153L177.508 109.001L61.6469 83.9535L23.4413 207.551C18.8033 229.026 22.7979 251.015 34.7023 269.47C44.5414 284.743 58.9589 295.773 75.7422 301.849L62.6644 362.309L30.7493 355.422C24.746 354.214 18.7872 357.948 17.4844 363.983C16.1805 370.012 20.007 375.942 26.0414 377.249L68.7659 386.479C68.7971 386.479 68.8131 386.507 68.8349 386.507C68.883 386.522 68.9397 386.507 68.9889 386.522L111.727 395.753C112.526 395.926 113.31 396.002 114.097 396.002C119.239 396.002 123.862 392.428 124.993 387.195C126.288 381.162 122.466 375.233 116.432 373.925L84.4939 367.019L97.5245 306.809C99.6635 306.982 101.799 307.159 103.939 307.159C142.301 307.159 176.048 279.893 184.313 241.437L193.372 173.538L199.319 197.722C210.51 231.381 241.846 253.996 277.285 253.996C282.374 253.996 287.412 253.383 292.401 252.44L311.863 310.966L280.893 321.259C275.034 323.204 271.865 329.526 273.81 335.367C275.37 340.048 279.728 343.014 284.406 343.014C285.57 343.014 286.764 342.838 287.929 342.443L371.111 314.788C376.974 312.837 380.143 306.514 378.194 300.673ZM162.344 237.612C155.548 269.164 123.031 290.342 91.1641 283.45H91.1462C75.507 280.079 62.124 270.822 53.4612 257.379C44.8012 243.934 41.8789 227.918 45.0166 213.212L76.928 110.099L176.441 131.614L162.344 237.612ZM220.756 191.535L195.047 86.8323L291.666 54.6894L334.161 152.843C339.218 168.03 338.037 184.271 330.891 198.571C323.723 212.871 311.419 223.533 296.225 228.575C290.084 230.639 283.702 231.67 277.29 231.67C251.477 231.67 228.664 215.202 220.756 191.535Z" fill="#1A262F"/>
<path d="M321.762 159.141C319.611 154.374 309.612 136.431 280.922 145.965C239.122 159.868 242.144 103.174 218.866 119.298L233.891 187.581C241.943 211.751 268.163 224.894 292.314 216.845C316.267 208.873 329.291 183.122 321.762 159.141Z" fill="#F8B321"/>
<path d="M129.425 25.2392C136.375 24.8622 141.722 18.911 141.348 11.9507C140.973 4.97906 135.012 -0.359028 128.063 0.0188899C121.083 0.395863 115.737 6.34712 116.116 13.3159C116.496 20.2781 122.456 25.6162 129.425 25.2392Z" fill="#F8B321"/>
<path d="M178.232 47.2936C185.178 46.9166 190.529 40.9653 190.152 33.9975C189.773 27.0353 183.812 21.6944 176.866 22.0713C169.89 22.4502 164.543 28.3996 164.918 35.3608C165.295 42.3287 171.254 47.6715 178.232 47.2936Z" fill="#F8B321"/>
<path d="M122.394 57.895C122.77 64.8648 128.729 70.2057 135.678 69.8259C142.657 69.4499 148.005 63.4986 147.629 56.5308C147.249 49.5695 141.288 44.2286 134.311 44.6056C127.364 44.9826 122.019 50.9338 122.394 57.895Z" fill="#F8B321"/>
</g>
<defs>
<clipPath id="clip0">
<rect width="396" height="396" fill="white"/>
</clipPath>
</defs>
</svg>
